<?xml version="1.0" standalone="no"?>
<!DOCTYPE svg PUBLIC "-//W3C//DTD SVG 20010904//EN"
 "http://www.w3.org/TR/2001/REC-SVG-20010904/DTD/svg10.dtd">
<svg version="1.0" xmlns="http://www.w3.org/2000/svg"
 width="225.000000pt" height="225.000000pt" viewBox="0 0 225.000000 225.000000"
 preserveAspectRatio="xMidYMid meet">
<metadata>
Created by potrace 1.11, written by Peter Selinger 2001-2013
</metadata>
<g transform="translate(0.000000,225.000000) scale(0.100000,-0.100000)"
fill="#000000" stroke="none">
<path d="M1789 2238 c-73 -27 -34 -118 50 -118 97 0 206 -72 252 -167 12 -24
25 -72 29 -105 5 -46 12 -66 29 -80 52 -41 95 -7 92 75 -5 157 -105 301 -255
367 -54 25 -165 40 -197 28z"/>
<path d="M1458 2103 c-40 -44 -6 -103 60 -103 54 0 147 -26 206 -58 66 -34
184 -152 218 -218 32 -59 58 -152 58 -206 0 -67 64 -103 105 -58 15 17 17 32
12 102 -7 91 -30 168 -77 256 -92 172 -277 288 -480 299 -75 5 -87 3 -102 -14z"/>
<path d="M725 1998 c-4 -21 -4 -53 -1 -71 4 -20 93 -159 222 -347 119 -173
219 -319 224 -323 4 -5 20 -3 34 5 l27 14 -237 344 c-130 190 -242 361 -249
380 l-13 35 -7 -37z"/>
<path d="M431 1891 c-7 -13 -11 -42 -9 -65 3 -35 41 -96 248 -398 135 -197
247 -357 250 -357 3 -1 15 7 27 17 l22 17 -251 365 c-138 201 -256 383 -263
405 -12 39 -12 39 -24 16z"/>
<path d="M245 1585 c-5 -22 -4 -55 2 -75 7 -26 319 -492 441 -658 l17 -24 17
30 17 29 -225 329 c-125 181 -234 347 -244 369 l-18 40 -7 -40z"/>
<path d="M1488 1234 c-96 -80 -170 -197 -202 -321 -20 -77 -21 -231 -1 -308
20 -79 81 -202 108 -220 18 -11 67 -12 67 0 0 1 -15 28 -34 58 -59 99 -81 186
-81 317 0 94 4 126 23 174 32 86 79 160 145 226 58 59 58 59 41 85 -9 14 -18
25 -19 25 -2 0 -23 -16 -47 -36z"/>
<path d="M144 796 c-16 -12 -19 -25 -17 -87 2 -40 10 -100 18 -133 66 -261
262 -421 551 -450 52 -6 64 -4 87 14 15 12 27 31 27 44 0 42 -22 57 -97 66
-117 15 -220 67 -308 155 -88 88 -140 191 -155 308 -9 75 -24 97 -65 97 -12 0
-30 -6 -41 -14z"/>
<path d="M20 480 c-22 -22 -25 -52 -10 -131 33 -177 177 -313 360 -342 81 -12
116 -2 126 38 11 46 -16 71 -88 79 -84 10 -146 38 -196 89 -51 52 -78 113 -88
195 -5 47 -12 66 -28 77 -28 20 -52 19 -76 -5z"/>
</g>
</svg>
